<svg xmlns="http://www.w3.org/2000/svg" width="375" height="375" viewBox="0 0 375 375"><path fill="#6A4B35" d="M187.496 187.258L187.126.342C232.96.25 272.19 14.442 307.36 43.834L187.496 187.258z"/><path fill="#77AE8A" d="M187.496 187.258L67.064 44.31C102.117 14.78 141.29.435 187.124.343l.372 186.916z"/><path fill="#B6BE89" d="M187.496 187.258L3.354 155.166c7.87-45.155 28.658-81.324 63.71-110.855L187.497 187.26z"/><path fill="#FCD4AD" d="M187.496 187.258l-161.69 93.78c-22.994-39.65-30.32-80.72-22.452-125.872l184.142 32.092z"/><path fill="#FACB71" d="M187.496 187.258l-63.582 175.77c-43.102-15.59-75.11-42.342-98.107-81.99l161.69-93.78z"/><path fill="#F6B853" d="M187.496 187.258l64.28 175.518c-43.044 15.762-84.76 15.844-127.862.253l63.582-175.772z"/><path fill="#EB9A4F" d="M187.496 187.258l162.06 93.137c-22.84 39.74-54.74 66.617-97.78 82.38l-64.28-175.517z"/><path fill="#C38231" d="M187.496 187.258l184.012-32.824c8.05 45.123.887 86.223-21.95 125.96L187.495 187.26z"/><path fill="#B86826" d="M187.496 187.258L307.36 43.834c35.17 29.39 56.098 65.48 64.147 110.6l-184.01 32.824z"/><path fill="#FAC070" d="M187.34 187.36l-41.432-13.46c5.947-18.307 22.184-30.104 41.432-30.104v43.565z"/><path fill="#B0AE80" d="M187.34 187.36l-25.605 35.245c-15.572-11.313-21.776-30.4-15.826-48.706l41.43 13.46z"/><path fill="#A35265" d="M187.34 187.36l25.607 35.245c-15.573 11.314-35.64 11.314-51.213 0l25.606-35.244z"/><path fill="#E57050" d="M187.34 187.36l41.432-13.46c5.95 18.305-.254 37.392-15.824 48.705L187.34 187.36z"/><path fill="#E4841F" d="M187.34 187.36v-43.563c19.248 0 35.484 11.797 41.432 30.103l-41.432 13.46z"/><path fill="#FAC070" d="M187.34 187.36l-41.432-13.46c5.947-18.307 22.184-30.104 41.432-30.104v43.565z"/><g fill="#fff"><path d="M300.246 199.117l6.41 1.115-.33 1.885-2.167-.377-1.97 11.31-2.074-.36 1.97-11.31-2.168-.378.328-1.885zM311.73 214.71l-2.093-.363.06-2.456-2.545-.442-.775 2.332-1.903-.332 4.408-12.828 3.035.53-.188 13.56zm-4.004-5.007l1.998.348.182-6.843-.037-.007-2.144 6.503zM318.203 211.896l.04.007 3.024-9.127 2.884.502-2.297 13.196-1.96-.34 1.648-9.464-.036-.007-3.043 9.22-1.96-.34.117-9.596-.038-.006-1.626 9.332-1.81-.315 2.298-13.195 2.885.502-.124 9.632zM330.544 217.986l-2.093-.363.06-2.457-2.544-.443-.775 2.332-1.902-.33 4.408-12.83 3.036.53-.188 13.56zm-4.002-5.007l1.998.347.182-6.844-.037-.007-2.143 6.503zM336.314 218.99c-.053-.358-.093-.578.094-1.653l.36-2.073c.214-1.226-.12-1.75-1.063-1.914l-.717-.125-.936 5.373-2.074-.36 2.298-13.196 3.13.545c2.148.373 2.897 1.533 2.543 3.57l-.182 1.035c-.236 1.357-.82 2.15-1.82 2.422l-.007.038c.963.614 1.132 1.653.893 3.03l-.355 2.035c-.11.64-.174 1.115-.052 1.642l-2.112-.37zm-.292-11.703l-.706 4.053.812.14c.772.136 1.303-.12 1.486-1.177l.227-1.3c.165-.944-.083-1.414-.817-1.542l-1-.173zM342.328 206.442l2.073.36-2.297 13.196-2.073-.36 2.298-13.196zM347.632 211.114l-.038-.007-1.664 9.558-1.866-.325 2.298-13.195 2.602.453.718 8.262.037.008 1.374-7.898 1.848.32-2.298 13.196-2.13-.37-.882-10.002zM354.903 208.63l3.28.572c2.073.36 2.89 1.688 2.522 3.8l-1.16 6.673c-.37 2.11-1.587 3.084-3.66 2.724l-3.28-.572 2.298-13.197zm1.745 2.247l-1.642 9.426 1.17.203c.66.115 1.114-.155 1.278-1.098l1.194-6.86c.164-.944-.172-1.353-.832-1.468l-1.168-.203z"/></g><g fill="#fff"><path d="M303.173 114.505l.91 1.485c1.12 1.827.848 3.362-.947 4.462l-.85.52 2.63 4.292-1.796 1.1-6.995-11.424 2.643-1.618c1.796-1.1 3.286-.644 4.405 1.183zm-4.254.968l2.368 3.867.85-.52c.57-.35.72-.8.22-1.617l-1.05-1.713c-.498-.815-.97-.888-1.54-.538l-.85.52zM315.28 118.916l-1.813 1.11-1.58-1.884-2.202 1.35.958 2.263-1.647 1.01-5.168-12.542 2.627-1.61 8.824 10.303zm-6.316-1.114l1.73-1.06-4.387-5.256-.032.02 2.69 6.296zM316.574 106.3l.91 1.483c1.118 1.828.847 3.363-.948 4.463l-.85.52 2.63 4.29-1.796 1.1-6.995-11.42 2.644-1.62c1.793-1.1 3.285-.645 4.404 1.183zm-4.255.966l2.367 3.868.85-.52c.57-.35.72-.802.22-1.617l-1.048-1.714c-.5-.814-.972-.887-1.542-.537l-.85.52zM328.677 110.71l-1.81 1.11-1.58-1.884-2.203 1.35.96 2.263-1.65 1.008-5.167-12.542 2.627-1.608 8.823 10.303zm-6.313-1.114l1.73-1.06-4.387-5.256-.033.02 2.69 6.296zM328.482 105.625l-6.944-6.248 1.876-1.148 4.542 4.374.033-.02-1.835-6.035 1.714-1.05 2.407 9.025 2.318 3.786-1.795 1.1-2.318-3.785zM341 103.164l-1.81 1.11-1.58-1.884-2.203 1.35.96 2.262-1.648 1.01-5.17-12.542 2.627-1.608L341 103.164zm-6.314-1.115l1.73-1.06-4.387-5.256-.033.02 2.69 6.295z"/></g><g fill="#fff"><path d="M277.117 290.723l.025.03 8.015-5.312 1.96 2.177-9.956 8.96-1.33-1.478 7.14-6.427-.026-.028-8.086 5.374-1.332-1.48 6.016-7.476-.025-.028-7.04 6.337-1.23-1.365 9.955-8.962 1.96 2.176-6.045 7.5zM283.064 303.137l-1.42-1.58 1.56-1.895-1.727-1.92-2.05 1.355-1.292-1.436 11.39-7.368 2.06 2.29-8.52 10.555zm-.056-6.412l1.356 1.508 4.368-5.27-.025-.03-5.7 3.792zM292.528 299.15l-.025-.03-7.21 6.49-1.268-1.407 9.955-8.96 1.767 1.962-4.538 6.942.024.028 5.96-5.363 1.254 1.393-9.955 8.96-1.446-1.604 5.48-8.41zM297.484 308l1.97 2.19-3.156 2.842c-1.593 1.434-3.22 1.457-4.602-.08-1.383-1.535-1.19-3.15.402-4.585l5.177-4.66c1.593-1.434 3.22-1.455 4.604.08 1.38 1.535 1.187 3.15-.405 4.585l-.967.87-1.332-1.48 1.066-.96c.71-.64.7-1.195.253-1.693-.448-.498-1-.567-1.712.072l-5.375 4.84c-.71.64-.686 1.183-.237 1.68.448.498.986.58 1.697-.06l1.834-1.65-.64-.71 1.424-1.282zM302.59 309.61c1.59-1.435 3.257-1.414 4.64.122s1.23 3.194-.365 4.628l-5.176 4.66c-1.594 1.434-3.26 1.414-4.642-.122s-1.23-3.194.363-4.628l5.18-4.66zm-3.87 6.315c-.71.64-.698 1.196-.25 1.694.447.496 1 .565 1.71-.075l5.376-4.84c.71-.64.7-1.195.252-1.692-.448-.497-1-.567-1.71.073l-5.377 4.84z"/></g><g fill="#fff"><path d="M134.187 20.257l1.082 3.148c.684 1.99-.084 3.348-2.11 4.044l-6.406 2.2c-2.027.697-3.466.1-4.15-1.89l-1.083-3.15 12.667-4.353zm-1.125 2.612l-9.047 3.11.386 1.12c.22.634.675.902 1.58.59l6.586-2.263c.905-.312 1.1-.803.883-1.437l-.388-1.12zM137.534 29.993l-9.77 3.36c-.905.31-1.095.82-.877 1.453.217.633.68.92 1.586.608l9.77-3.358.647 1.882-9.646 3.315c-2.026.696-3.532.082-4.204-1.873s.138-3.365 2.164-4.062l9.646-3.315.684 1.99zM128.277 44.266c.287-.222.462-.36 1.494-.717l1.992-.685c1.175-.404 1.473-.95 1.162-1.857l-.237-.688-5.157 1.773-.684-1.99 12.666-4.355 1.033 3.004c.71 2.062.055 3.28-1.9 3.95l-.996.343c-1.304.448-2.278.317-3-.426l-.036.012c-.074 1.138-.903 1.787-2.225 2.24l-1.955.673c-.615.21-1.062.386-1.463.746l-.695-2.024zm10.11-5.905l-3.89 1.34.267.776c.254.742.736 1.083 1.75.734l1.248-.43c.904-.31 1.197-.755.954-1.46l-.33-.96zM142.168 43.477l.684 1.99-12.666 4.355-.684-1.99 12.666-4.355zM133.054 58.164l-.69-2.01 2.18-1.133-.84-2.44-2.416.444-.628-1.827 13.363-2.327 1 2.913-11.97 6.38zm2.456-5.923l.66 1.92 6.08-3.145-.012-.035-6.728 1.26zM143.324 58.196l-.013-.036-9.172 3.153-.617-1.79 12.667-4.355.86 2.497-6.892 4.615.013.036 7.58-2.606.61 1.773-12.666 4.354-.703-2.045 8.334-5.596z"/></g><g fill="#fff"><path d="M14.132 209.598l2.075-.348 1.902 11.32 3.415-.573.317 1.887-5.49.923-2.22-13.21zM23.258 217.145l-4.106-8.39 2.17-.364 2.578 5.757.038-.006.554-6.282 1.982-.333-1.14 9.27.736 4.38-2.076.348-.736-4.378zM34.906 214.625l.295 1.755c.356 2.114-.497 3.5-2.535 3.842-2.037.343-3.298-.688-3.653-2.802l-1.153-6.868c-.356-2.114.498-3.5 2.535-3.84 2.04-.344 3.298.687 3.654 2.8l.214 1.283-1.963.33-.237-1.416c-.158-.944-.633-1.233-1.293-1.122s-1.015.54-.856 1.482l1.198 7.133c.158.943.63 1.214 1.29 1.104.66-.11 1.02-.52.86-1.464l-.317-1.888 1.96-.33zM39.546 218.91l-2.075.348-2.22-13.208 2.076-.35.95 5.66 2.36-.395-.952-5.66 2.114-.355 2.22 13.208-2.115.355-.95-5.66-2.36.396.953 5.66zM46.793 209.834l2.85-.48.317 1.89-2.85.478.65 3.868 3.584-.603.317 1.887-5.66.95-2.22-13.207 5.66-.95.318 1.886-3.585.602.62 3.68zM54.21 208.588l2.85-.48.316 1.89-2.85.478.65 3.868 3.585-.603.318 1.888-5.66.95-2.22-13.207 5.66-.95.317 1.887-3.586.602.62 3.678z"/></g><g fill="#fff"><path d="M36.71 103.222l-1.17.743-2.033 3.576-1.83-1.04 6.62-11.643 1.83 1.04-2.865 5.04.033.02 5.228-3.697 1.83 1.04-5.496 3.743-1.124 7.9-1.88-1.068.858-5.653zM45.6 99.01l1.83 1.04-6.62 11.644-1.83-1.04L45.6 99.01zM50.162 108.8l-.033-.02-4.178 5.836-2.513-1.43 5.323-12.38 1.78 1.012-4.256 9.73.033.02 6.085-8.69 1.764 1.002-4.36 9.76.032.02 6.19-8.72 1.596.907-7.917 10.907-2.428-1.38 2.88-6.575zM58.96 106.604l1.83 1.04-6.62 11.645-1.83-1.042 6.62-11.644z"/></g><g fill="#fff"><path d="M76.195 314.476l.367.307c1.057.884 1.448 1.76 1.184 2.76l.03.024c1.06-.583 2.107-.283 3.193.625l.836.7c1.586 1.325 1.738 2.873.388 4.488l-2.122 2.54-10.278-8.59 2.037-2.438c1.4-1.673 2.78-1.742 4.365-.416zm-3.583 2.466l2.717 2.27.526-.63c.503-.604.545-1.19-.276-1.878l-.573-.48c-.735-.612-1.266-.633-1.744-.06l-.65.778zm4.184 3.497l3.157 2.638.772-.926c.454-.543.45-1.045-.313-1.684l-.896-.75c-.956-.796-1.506-.732-2.12 0l-.6.72zM89.73 314.363l-1.363 1.63-2.098-1.278-1.657 1.98 1.63 1.838-1.237 1.483-8.904-10.234 1.976-2.364 11.65 6.945zm-6.34.962l1.3-1.557-5.835-3.58-.025.03 4.56 5.107zM84.446 305.558l-.024.03 7.443 6.22-1.215 1.454-10.277-8.59 1.693-2.026 7.514 3.512.025-.03-6.152-5.14 1.202-1.44 10.278 8.59-1.387 1.66-9.1-4.24zM100.578 301.383l-1.36 1.63-2.1-1.28-1.655 1.982 1.63 1.838-1.24 1.482-8.902-10.234 1.976-2.362 11.652 6.945zm-6.34.96l1.302-1.556-5.836-3.58-.024.03 4.56 5.107zM95.294 292.576l-.024.03 7.444 6.22-1.215 1.454-10.28-8.59 1.694-2.026 7.515 3.512.023-.03-6.152-5.14 1.203-1.44 10.277 8.59-1.386 1.66-9.1-4.24zM111.426 288.4l-1.36 1.63-2.1-1.278-1.656 1.982 1.63 1.836-1.238 1.483L97.8 283.82l1.975-2.364 11.65 6.945zm-6.34.962l1.302-1.557-5.836-3.58-.024.03 4.56 5.107z"/></g><g fill="#fff"><path d="M229.98 68.857l1.666.625c2.007.754 2.777 2.188 2.05 4.12-.725 1.937-2.248 2.51-4.255 1.757l-6.52-2.448c-2.007-.752-2.777-2.186-2.05-4.12.725-1.935 2.248-2.51 4.255-1.756l1.218.457-.7 1.863-1.343-.504c-.896-.336-1.383-.07-1.618.558s-.044 1.148.852 1.484l6.77 2.54c.897.337 1.368.064 1.604-.563.235-.626.06-1.14-.836-1.477l-1.79-.673.698-1.863zM225.683 65.55c-2.007-.754-2.756-2.24-2.03-4.176s2.27-2.562 4.275-1.81l6.52 2.447c2.008.753 2.758 2.24 2.032 4.176s-2.27 2.562-4.276 1.81l-6.52-2.447zm7.386.52c.895.338 1.383.07 1.618-.557.236-.627.043-1.148-.853-1.484l-6.772-2.542c-.895-.336-1.382-.07-1.618.558s-.043 1.15.853 1.485l6.77 2.54zM235.573 53.95l1.666.625c2.006.753 2.776 2.187 2.05 4.12-.726 1.936-2.248 2.51-4.255 1.756l-6.52-2.445c-2.008-.753-2.778-2.187-2.053-4.12.727-1.936 2.25-2.51 4.256-1.756l1.217.456-.7 1.863-1.343-.505c-.896-.336-1.383-.07-1.618.557s-.043 1.15.853 1.485l6.77 2.54c.897.337 1.367.063 1.603-.563s.06-1.142-.836-1.48l-1.79-.67.7-1.864zM231.277 50.64c-2.007-.75-2.757-2.24-2.03-4.174s2.27-2.562 4.275-1.81l6.52 2.447c2.008.753 2.757 2.24 2.03 4.175s-2.268 2.562-4.274 1.81l-6.52-2.447zm7.385.524c.896.336 1.384.07 1.62-.558s.042-1.148-.855-1.485l-6.77-2.54c-.897-.335-1.384-.068-1.62.56s-.042 1.147.854 1.483l6.772 2.54zM235.287 41.312l-.014.036 9.083 3.407-.665 1.773-12.54-4.705.928-2.472 8.253.828.014-.035-7.507-2.816.66-1.756 12.54 4.706-.76 2.024-9.99-.988zM234.9 31.827l9.676 3.63c.896.336 1.365.062 1.6-.564s.063-1.143-.833-1.48l-9.675-3.628.698-1.863 9.55 3.582c2.006.753 2.776 2.187 2.05 4.12-.726 1.936-2.248 2.51-4.254 1.756l-9.55-3.582.74-1.97zM236.824 26.702l2.285-6.09 1.792.67-.773 2.062 10.747 4.032-.74 1.97-10.747-4.03-.772 2.06-1.794-.674z"/></g><g fill="#fff"><path d="M188.466 356.268h1.74c2.145 0 3.312 1.033 3.312 3.138v.995h5.032v2.105h-13.395v-3.1c0-2.104 1.17-3.137 3.31-3.137zm-1.396 4.132h4.534v-.995c0-.67-.305-1.033-1.262-1.033h-2.01c-.956 0-1.262.363-1.262 1.033v.995zM185.156 354.812v-2.104h13.395v2.104h-13.394zM188.85 348.783v.04h9.7v1.894h-13.395v-2.64l8.018-2.125v-.038h-8.018v-1.875h13.395v2.16l-9.7 2.583zM190.8 339.942v-2.89h1.914v2.89h3.923v-3.636h1.913v5.74h-13.395v-5.74h1.914v3.636h3.73zM198.55 327.715v2.123l-2.43.363v2.585l2.43.363v1.933l-13.395-2.143v-3.08l13.395-2.142zm-4.248 4.803v-2.03l-6.773.996v.038l6.772.996zM188.466 320.02h1.74c2.145 0 3.312 1.034 3.312 3.14v.995h5.032v2.104h-13.395v-3.102c0-2.104 1.17-3.137 3.31-3.137zm-1.396 4.134h4.534v-.996c0-.67-.305-1.033-1.262-1.033h-2.01c-.956 0-1.262.364-1.262 1.033v.996zM188.466 312.327h1.74c2.145 0 3.312 1.033 3.312 3.138v.995h5.032v2.104h-13.395v-3.1c0-2.104 1.17-3.137 3.31-3.137zm-1.396 4.133h4.534v-.995c0-.67-.305-1.033-1.262-1.033h-2.01c-.956 0-1.262.363-1.262 1.033v.995zM185.156 310.87v-2.103h11.48v-3.463h1.914v5.567h-13.394zM190.8 301.8v-2.89h1.914v2.89h3.923v-3.635h1.913v5.74h-13.395v-5.74h1.914v3.636h3.73z"/></g></svg>